<svg version="1.2" xmlns="http://www.w3.org/2000/svg" viewBox="0 0 256 256" width="256" height="256">
    <style>.a{fill:#dc3545}.b{fill:#fff}</style>
    <path class="a"
          d="m128.9 12c52 40.1 100.1 4.6 100.1 4.6l-1.4 141.8c-6.5 62-101.9 85.1-101.9 85.1-94.8-27.1-98.7-99.4-98.7-99.4l2.9-126.1c0 0 54.7 38.1 99-6z"/>
    <path class="b"
          d="m88.5 182.8c6.3-3.9 9.8-22.7 9.8-34.6 0-9.4-2-18.7-5.5-23.2 6.8-6.6 8.3-23.2 8.3-34.6 0-4.6-0.5-8.5-0.6-10.4-4.4-1.8-10.8-7.5-13-13.6 13.1 1.5 25.2 1.9 35.9 1.9 22.8 0 35.8-2.1 44-2.1 1.6 0 3 0.1 3.9 0.2-2.3 4.5-5.8 27.4-6.5 34.3l-1.1 0.6c-7.3-4.2-9.9-9.2-11.6-16.5-2.9-2.2-7.1-2.7-13.8-2.7-5.4 0-10.7 0.4-13.7 0.4-1.6 8-2.5 20.5-2.8 33.4 2.8 0.3 6.3 0.4 7.9 0.4 4.5 0 8.8-3.7 12.8-9.2 2.1 4.9 4.1 13.8 8.6 17.1-3.6 3.7-7.3 12.3-9.3 17.7-2.5-4.5-6.6-11.4-11.4-11.4-1.8 0-6 0.1-9 0.7v2.9c0 13 0.4 25.3 1.2 33.9l26.3 2.7c3-13 11.2-22.3 19.8-31.6l0.8 0.3c-0.5 4.8-0.7 9.4-0.7 13.9 0 10.7 1.3 20.2 2.8 24.5-6.8 0.8-13.7 2.5-24.7 11.7-17.2-5.2-35.2-7.9-49-7.9-3 0-6.1 0.6-9.3 1.6z"/>
</svg>