<svg version="1.2" xmlns="http://www.w3.org/2000/svg" viewBox="0 0 908 232" width="1002" height="256">
    <style>.a{fill:#dc3545}.b{fill:#761d25}.c{fill:#fff}</style>
    <path class="a"
          d="m116.1 41.8c36.3 28 69.9 3.2 69.9 3.2l-1 99c-4.5 43.3-71.1 59.4-71.1 59.4-66.2-18.9-68.9-69.4-68.9-69.4l2-88c0 0 38.2 26.6 69.1-4.2z"/>
    <path class="b"
          d="m241.2 174.8l1.2 0.8q-1.3 2.7-4 4.3-2.8 1.6-5.8 1.6-3 0-5.1-1.9-2-1.8-2-5.1 0-3.4 2-6.1 2.1-2.7 5.1-4.1 3-1.5 6.1-1.5 3.7 0 5 1.8 0.6 0.8 0.6 1.9 0 1-0.8 1.8-0.7 0.8-1.8 0.8-1 0-1.8-0.7-0.7-0.7-0.7-1.8 0-1 1.3-1.9-1.1-0.3-2.1-0.3-2.1 0-3.8 1.5-1.8 1.5-2.7 3.7-0.9 2.2-0.9 4.3 0 2.1 1 3.4 1.1 1.3 3 1.3 1.8 0 3.6-1.1 1.7-1.1 2.6-2.7zm4.5-1q0-2.2 1.1-4.3 1.1-2.1 2.9-3.5 3.8-3.2 7.8-3.2 4 0 6.6 2.2 2.5 2.1 2.5 5.3 0 3.2-1.7 5.8-1.8 2.5-4.7 4-2.9 1.4-6.3 1.4-3.4 0-5.8-2.2-2.4-2.1-2.4-5.5zm9.9 5.8q1.3 0 2.6-0.9 1.2-0.9 1.8-2.3 1.3-2.8 1.3-5.8 0-2.9-1.1-4.4-1.1-1.5-3.1-1.5-2 0-3.9 2.5-2 2.6-2 6.6 0 5.8 4.4 5.8zm32.6 1.4h-4.4l0.6-2q0.3-1.2 1-3.4 1.8-4.9 1.8-7.7 0-1.1-1-1.1-1.2 0-2.9 1.4-1.7 1.5-3.2 3.6-2.6 3.5-5.1 7.8l-0.8 1.4h-4.3q0 0 1-2.8 2.6-7.9 2.6-9.3 0-1.5-0.5-1.5-0.9 0-2.1 2.1-0.2 0.5-0.4 0.8-0.2 0.3-0.4 0.7-0.2 0.4-0.3 0.5l-2-1.2q2.3-3.8 4.3-5.6 1.9-1.9 4-1.9 0.9 0 1.6 0.8 0.7 0.8 0.7 1.9 0 1-0.1 1.9-0.2 0.8-0.3 1.5-0.2 0.7-0.4 1.6-0.3 1-0.5 1.5-0.1 0.5-0.4 1.4-0.3 0.9-0.3 1 0.6-1 1.9-3.1 1.4-2.2 1.8-2.7 0.4-0.6 1.2-1.4 0.7-0.9 1.2-1.5 0.6-0.5 1.4-1.1 0.8-0.6 1.5-1 1.6-0.8 3.4-0.8 1.7 0 2.6 1 0.9 1 0.9 2.3 0 1.3-0.4 2.7-0.4 1.4-1.1 3.3-0.8 1.9-1 2.6 2.9-4.7 4.5-6.7 4.1-5.2 8.2-5.2 2.1 0 2.9 1 0.9 1 0.9 2.6 0 1.7-1.4 5.5-1.4 3.8-1.4 4.7 0 0.9 0.5 0.9 1.2 0 3.8-3.8l1.3 1.2q-1.7 3.1-3.9 4.9-2.1 1.7-3.7 1.7-1.5 0-2.1-1-0.6-1-0.6-2.4 0-1.3 1.2-4.8 1.2-3.5 1.2-5.4 0-1.1-1-1.1-3 0-8.7 8.8-2.3 3.6-3.3 5.4zm43.3-5.8q-1.4 2.7-3.9 4.5-2.5 1.8-5.7 1.8-3.2 0-5.1-2.5-1.4 5.6-2.4 8-3.2 7.3-8.6 7.4-1.3 0-2.2-0.9-0.9-0.9-0.9-2.1 0-1.2 0.6-1.9 0.6-0.7 1.6-0.7 0.9 0 1.6 0.5 0.7 0.5 0.7 1.4 0 1-1.1 2.1l0.2 0.3q1.9 0 3.4-5.5 0.6-2.2 0.9-3.4 0.2-1.2 0.3-1.5l3.2-12.4q-1.5 1-3.8 3.7l-1.2-1.3q1.3-1.9 3.2-3.6 1.8-1.8 2.2-2.2 2.4-7 4.6-10.5 2.3-3.4 5-5.5l0.9 0.8q-1.9 2.2-3.3 5.7-1.3 3.5-1.7 6.7 3.2-1.3 6.1-1.3 2.9 0 4.8 1.9 1.9 1.8 1.9 4.8 0 3-1.3 5.7zm-11.8-8.4l-2.3 10.1q0.6 1.2 1.8 1.8 1.3 0.6 3 0.6 1.6 0 3-1.4 2.6-2.6 2.6-6.9 0-3.8-2.1-5.1-0.8-0.5-2.1-0.5-1.4 0-3.9 1.4zm31.3 0.2l0.9-3.5h4.7l-2.4 9q-0.6 1.9-0.6 3.4 0 1.6 0.6 1.6 0.5 0 1.4-1 1-0.9 1.7-1.9l0.7-0.9 1.3 1.2q-1 1.9-2.6 3.5-3 3.1-5.1 3.1-2.6 0-2.6-4 0-0.7 0-1-0.4 1.5-1.7 2.7-2.4 2.3-5.4 2.3-3 0-4.9-2.1-1.8-2-1.8-5.1 0-4.9 3.1-8.2 3.2-3.3 7.4-3.3 2.1 0 3.5 1.2 1.4 1.1 1.8 3zm-4.1-1.6q-1.8 0-3.3 1.5-1.5 1.4-2.3 3.5-0.9 2.1-0.9 4 0 2 0.9 3.2 0.9 1.2 2.6 1.2 1.8 0 3.3-1.7 2.7-3.1 2.7-7.4 0-4.3-3-4.3zm22.1 7.1q6.3-9.7 11.3-9.7 1.7 0 2.5 1 0.9 1.1 0.9 2.6 0 1.6-1.4 5.5-1.4 3.8-1.4 4.7 0 0.9 0.4 0.9 0.6 0 1.8-1.2 1.2-1.3 2.1-2.6l1.3 1.2q-1.8 3.2-4 4.9-2.2 1.7-3.5 1.7-1.3 0-2.1-0.9-0.7-0.9-0.7-2.4 0-1.6 1.2-5 1.2-3.5 1.2-5 0-1.4-1-1.4-1.1 0-2.7 1.4-1.6 1.5-3 3.6-2.4 3.4-4.8 7.8l-0.8 1.4h-4.3l1-2.8q2.6-7.9 2.6-9.3 0-1.5-0.5-1.5-0.9 0-2.1 2.1-0.3 0.5-0.4 0.8-0.2 0.3-0.5 0.7-0.2 0.4-0.2 0.5l-2-1.2q2.3-3.8 4.3-5.6 1.9-1.9 4-1.9 0.9 0 1.6 0.8 0.7 0.8 0.7 1.9 0 1.1-0.2 2.2-0.2 1.1-0.4 1.8-0.2 0.7-0.5 1.8-0.3 1.1-0.4 1.2zm20.5-1.9l-2-1.2q1.5-2.6 3.7-4.6 2.3-2 4.1-2 2.9 0 2.9 2.6 0 1.1-1.5 5.3-1.5 4.2-1.5 5.3 0 1.1 0.1 1.4 0.2 0.3 0.7 0.3 2.7 0 5.6-2 2.9-2.1 3.8-4.6l2.1-6.1q0.4-1 1-1.5 0.7-0.6 1.4-0.6 0.6 0 1 0.5 0.4 0.4 0.4 1.1 0 0.7-0.2 1.4l-2.3 6.7q-1.9 5.9-5.9 11.6 3.5 0.4 6.2 1.3l-0.3 1.6q-4.1-0.8-7.3-1-2.9 3.8-6 6.1-3 2.2-5.3 2.2-2.3 0-3.4-0.9-1.1-0.9-1.1-2.5 0-1.6 1.2-2.9 1.2-1.4 3.2-2.2 4.1-1.7 9.4-1.9 0.4-0.5 2-3.4 1.6-2.9 1.7-3.6-5.3 4.5-9.4 4.5-1.6 0-2.4-1.1-0.7-1.2-0.7-2.8 0-1.7 1.2-5.7 1.3-4 1.3-4.6 0-0.5-0.3-0.5-0.2 0-0.5 0.1-0.3 0.1-0.6 0.4-0.3 0.3-0.6 0.6-0.2 0.2-0.5 0.7-0.3 0.4-0.4 0.7-0.7 1-0.8 1.3zm8.7 15.5q-2.5 0.2-5 0.9-4.9 1.4-4.9 3.3 0 1.1 1.4 1.1 1.4 0 4.5-2 3.2-2 4-3.3zm43.6-5.1h-4.5l0.6-2q0.3-1.2 1.1-3.4 1.7-4.9 1.7-7.7 0-1.1-1-1.1-1.2 0-2.9 1.4-1.6 1.5-3.2 3.6-2.5 3.5-5 7.8l-0.9 1.4h-4.2q0 0 0.9-2.8 2.7-7.9 2.7-9.3 0-1.5-0.5-1.5-0.9 0-2.1 2.1-0.3 0.5-0.5 0.8-0.1 0.3-0.4 0.7-0.2 0.4-0.3 0.5l-2-1.2q2.4-3.8 4.3-5.6 2-1.9 4-1.9 1 0 1.6 0.8 0.7 0.8 0.7 1.9 0 1-0.1 1.9-0.1 0.8-0.3 1.5-0.1 0.7-0.4 1.6-0.3 1-0.4 1.5-0.2 0.5-0.5 1.4-0.2 0.9-0.3 1 0.6-1 2-3.1 1.3-2.2 1.7-2.7 0.5-0.6 1.2-1.4 0.7-0.9 1.3-1.5 0.5-0.5 1.3-1.1 0.8-0.6 1.5-1 1.7-0.8 3.4-0.8 1.8 0 2.7 1 0.9 1 0.9 2.3 0 1.3-0.5 2.7-0.4 1.4-1.1 3.3-0.7 1.9-0.9 2.6 2.9-4.7 4.4-6.7 4.2-5.2 8.3-5.2 2 0 2.9 1 0.8 1 0.8 2.6 0 1.7-1.4 5.5-1.4 3.8-1.4 4.7 0 0.9 0.6 0.9 1.2 0 3.8-3.8l1.3 1.2q-1.8 3.1-3.9 4.9-2.2 1.7-3.7 1.7-1.5 0-2.1-1-0.6-1-0.6-2.4 0-1.3 1.2-4.8 1.2-3.5 1.2-5.4 0-1.1-1.1-1.1-3 0-8.7 8.8-2.3 3.6-3.2 5.4zm38.2-14l0.9-3.5h4.7l-2.4 9q-0.5 1.9-0.5 3.4 0 1.6 0.5 1.6 0.5 0 1.5-1 0.9-0.9 1.6-1.9l0.7-0.9 1.3 1.2q-1 1.9-2.5 3.5-3 3.1-5.2 3.1-2.6 0-2.6-4 0-0.7 0.1-1-0.5 1.5-1.8 2.7-2.4 2.3-5.4 2.3-3 0-4.9-2.1-1.8-2-1.8-5.1 0-4.9 3.2-8.2 3.1-3.3 7.3-3.3 2.1 0 3.5 1.2 1.4 1.1 1.8 3zm-4.1-1.6q-1.8 0-3.3 1.5-1.5 1.4-2.3 3.5-0.8 2.1-0.8 4 0 2 0.8 3.2 0.9 1.2 2.7 1.2 1.8 0 3.2-1.7 2.8-3.1 2.8-7.4 0-4.3-3.1-4.3zm22.2 7.1q6.3-9.7 11.2-9.7 1.7 0 2.6 1 0.8 1.1 0.8 2.6 0 1.6-1.4 5.5-1.4 3.8-1.4 4.7 0 0.9 0.5 0.9 0.6 0 1.7-1.2 1.2-1.3 2.1-2.6l1.3 1.2q-1.8 3.2-4 4.9-2.1 1.7-3.5 1.7-1.3 0-2.1-0.9-0.7-0.9-0.7-2.4 0-1.6 1.2-5 1.2-3.5 1.2-5 0-1.4-1-1.4-1.1 0-2.7 1.4-1.5 1.5-3 3.6-2.4 3.4-4.8 7.8l-0.8 1.4h-4.2l0.9-2.8q2.6-7.9 2.6-9.3 0-1.5-0.5-1.5-0.9 0-2.1 2.1-0.2 0.5-0.4 0.8-0.2 0.3-0.4 0.7-0.2 0.4-0.3 0.5l-2-1.2q2.3-3.8 4.3-5.6 1.9-1.9 4-1.9 0.9 0 1.6 0.8 0.7 0.8 0.7 1.9 0 1.1-0.2 2.2-0.2 1.1-0.4 1.8-0.2 0.7-0.5 1.8-0.3 1.1-0.3 1.2zm34.7-5.5l0.9-3.5h4.7l-2.4 9q-0.5 1.9-0.5 3.4 0 1.6 0.5 1.6 0.5 0 1.5-1 0.9-0.9 1.6-1.9l0.7-0.9 1.3 1.2q-1 1.9-2.5 3.5-3 3.1-5.2 3.1-2.6 0-2.6-4 0-0.7 0.1-1-0.5 1.5-1.8 2.7-2.4 2.3-5.4 2.3-3 0-4.8-2.1-1.8-2-1.8-5.1 0-4.9 3.1-8.2 3.1-3.3 7.3-3.3 2.1 0 3.5 1.2 1.4 1.1 1.8 3zm-4.1-1.6q-1.7 0-3.3 1.5-1.5 1.4-2.3 3.5-0.8 2.1-0.8 4 0 2 0.8 3.2 0.9 1.2 2.7 1.2 1.8 0 3.2-1.7 2.8-3.1 2.8-7.4 0-4.3-3.1-4.3zm14.1 20q-1.3-1-1.3-1.9 0-0.9 0.8-1.4l3.6-3.6q-3.2-2.6-3.2-6.4 0-3.7 3.3-6.6 3.3-2.9 7.4-2.9 1 0 1.4 0.1 0.3-2.3 2.3-4.3 2-2 5-2 3 0 3 2.7 0 1.1-0.7 1.8-0.6 0.7-1.6 0.7-0.9 0-1.6-0.6-0.7-0.6-1-1.6-1.8 0.5-2.9 1.6-1.1 1-1.1 1.9 2.4 0.9 4 3 1.5 2.1 1.5 4.4 0 3.9-3.1 6.8-3.2 2.8-7.2 2.8-2.6 0-4.3-0.7-1.7 1.5-1.7 2 0 0.9 1.4 1l6 0.2q3 0.1 4.8 1 1.7 0.9 1.7 2.5 0 1.7-1 2.9-0.9 1.2-2.5 1.9-3.1 1.3-7.8 1.3-2.4 0-4.4-0.5-3.9-1-3.9-3 0-1.7 2.5-2.8 0.3-0.2 0.6-0.3zm7.6-19.4q-1.3 1.3-1.9 3-0.5 1.7-0.5 3 0 1.4 0.1 2.3 0.2 0.9 0.5 1.8 0.8 2 2.8 2 2 0 3.2-1.4 2.2-2.3 2.2-6.8 0-1.7-0.9-3.5-0.9-1.7-2.6-1.7-1.6 0-2.9 1.3zm-2 24.3q6.7 0 6.7-2.3 0-2.1-10.3-2.1-0.8 0-1.3 0.9-0.5 0.8-0.5 1.5 0 1.2 1.4 1.6 1.4 0.4 4 0.4zm22.6-15.2h-1.3q0.2 3.4 4.7 3.4 1.6 0 3.4-0.9 1.8-1 2.9-2.3l1.3 0.9q-2.5 4.2-8 5.1-1.2 0.2-2.3 0.2-3.2 0-5.4-2.2-2.2-2.1-2.2-5.2 0-3.1 1.9-5.7 1.9-2.7 4.8-4.1 2.8-1.5 5.6-1.5 2.8 0 4.8 1.3 2 1.3 2 3.4 0.1 2.1-1.2 3.7-1.3 1.5-3.3 2.3-3.9 1.6-7.7 1.6zm-1.5-1.7q3.4-0.1 5.4-1 2-1 2.8-2.2 0.8-1.2 0.8-2.6 0-1.3-0.7-1.9-0.7-0.7-1.4-0.7-2 0-3.6 1.3-1.6 1.4-2.4 3.3-0.9 1.9-0.9 3.8zm32.4-6.6q-1.1 0-2.7 1.4-1.5 1.5-3 3.6-2.4 3.4-4.8 7.8l-0.8 1.4h-4.3q0 0 1-2.8 2.6-7.9 2.6-9.3 0-1.5-0.5-1.5-0.9 0-2.1 2.1-0.2 0.5-0.4 0.8-0.2 0.3-0.4 0.7-0.2 0.4-0.3 0.5l-2-1.2q2.3-3.8 4.3-5.6 1.9-1.9 4-1.9 0.9 0 1.6 0.8 0.7 0.8 0.7 1.9 0 1-0.1 1.9-0.2 0.8-0.3 1.5-0.2 0.7-0.4 1.6-0.3 1-0.5 1.5-0.1 0.5-0.4 1.4-0.3 0.9-0.3 1 0.5-1.1 1.8-3.2 1.3-2.1 1.7-2.6 0.4-0.6 1.1-1.5 0.7-0.9 1.2-1.4 0.5-0.5 1.2-1.1 0.8-0.7 1.4-1 1.7-0.8 3.3-0.8 1.6 0 2.5 1 1 0.9 1 2.1 0 1.2-0.8 2.1-0.8 0.9-1.8 0.9-1 0-1.6-0.3-0.5-0.4-0.8-0.7-0.6-1.1-1.1-1.1z"/>
    <path class="c"
          d="m88 161.3c2.2-0.7 4.4-1.1 6.5-1.1 9.6 0 22.2 1.9 34.2 5.5 7.7-6.4 12.5-7.6 17.2-8.2-1-3-1.9-9.6-1.9-17.1 0-3.1 0.1-6.3 0.5-9.7l-0.6-0.2c-6 6.5-11.7 13-13.8 22.1l-18.4-1.9c-0.5-6-0.8-14.6-0.8-23.7v-2c2.1-0.4 5-0.5 6.3-0.5 3.3 0 6.2 4.8 7.9 8 1.4-3.8 4-9.8 6.5-12.4-3.1-2.3-4.5-8.5-6-11.9-2.8 3.8-5.8 6.4-8.9 6.4-1.1 0-3.6-0.1-5.5-0.3 0.2-9 0.8-17.7 1.9-23.3 2.1 0 5.8-0.3 9.6-0.3 4.7 0 7.6 0.4 9.6 1.9 1.2 5.1 3 8.6 8.1 11.5l0.8-0.4c0.5-4.8 2.9-20.8 4.5-23.9-0.6-0.1-1.6-0.2-2.7-0.2-5.7 0-14.8 1.5-30.7 1.5-7.5 0-15.9-0.3-25.1-1.3 1.6 4.2 6 8.2 9.1 9.5 0.1 1.3 0.4 4 0.4 7.2 0 8-1 19.6-5.8 24.2 2.5 3.1 3.9 9.6 3.9 16.2 0 8.3-2.5 21.4-6.9 24.1z"/>
    <path class="a"
          d="m250.4 108.2l1.4-0.1 2.7 0.1q1.1 0 1.7-0.1 0.3 0.1 4.2 1.6 10.3 3.9 12.1 3.9 1.9 0 4.2-1.2 1.2-0.2 6.6-4.5 5.5-4.4 9.8-8.8v5q-1.3 1.2-4 3.6-2.6 2.4-3.8 3.4-1.2 1.1-3.4 2.9-2.2 1.8-3.5 2.7-1.2 0.8-3.2 2-1.9 1.1-3.4 1.6-4 1.3-7.4 1.3-0.2 0-0.9-0.4-0.6-0.3-1.3-0.7-0.7-0.4-2.2-1-1.5-0.6-3.5-1.3-3.6-1.4-12.6-4.2-4.1 3.3-8.3 5.5-4.2 2.1-7.2 2.1-1 0-2.3-0.6-2.6-1.2-2.6-4 0-2.4 5.5-4.7 1.2-0.5 1.4-0.7l11.7-5.3q1.2-1.7 5.1-16-3 0.4-5.8 1-2.7 0.6-3.3 0.7-0.6 0-1.2-0.5-0.6-0.5-0.6-1.8 0-2 2.4-2.6 3-1.2 10.2-2.6 5.2-18.4 8.4-22.9 1.7-2.3 4.8-4.4-4.6-0.4-9.4-0.4-11.3 0-16.7 2.8-5.3 2.7-5.3 7.5 0 2.5 2.3 4.8 2.3 2.2 6.6 3.8 0 1.6-0.4 3.5-0.4 1.9-0.9 2.3-7-2.4-10.7-6-3.7-3.6-3.7-7.4 0-8.1 8-13.1 8-5 21.8-5h13.2q28.3 0 28.3 1.2 0 0.6-0.9 1.4l-4.5 5.2q-2.4 1.6-4.8 1.6-2.4 0-8.5-0.9-6.1-1-8.9-1.1-0.3 1.3-2.8 10.7-2.5 9.4-4.2 14.8 5.9-0.5 10.8-0.5 4.9 0 10.3 0.3 1.6 0 1.6 1.4 0 1.4-1.4 2.9-1.4 1.5-3.1 1.5-13.5 0-19.8 0.5v0.1q-2.3 8.5-8.6 19.1zm66.3 11.6q-2.4-0.7-2.4-2.7l1.2-49.4h-0.6l-21.8 45.3q-1.9 3.5-5.5 7.5-3.6 4-8.3 7.2-4.7 3.1-8.3 3.1-2.1 0-2.1-6.2 0-2.8 4.1-4.4 4.8-1.9 7.9-3.3 6.2-2.8 8.9-7.6 3.7-7.9 13-27.4 9.3-19.4 12.5-26.1 1.8-3.4 5.4-5.6 3.6-2.1 7.6-2.1 0 0 0.5 0.3-1.6 12.1-2.4 28.1-0.7 15.9-1 20.5h0.7q0.8-1.8 2.6-5.2 7.9-15.1 19.1-37.9l-0.1 0.1q1.3-2 6-4.3 4.8-2.4 7.4-2.5l0.3 0.2q-6.2 32.3-7.9 43.9-1.8 11.5-1.8 16.4 0 4.9 2.2 4.9 3.3 0 17-13.5v5.2q-17.7 17.2-24.9 17.2-5.2 0-5.2-9.5 0-6.9 1.4-15.2 2-11.8 3.2-18.8 1.3-7.1 2-10.4 0.7-3.4 0.7-4 0-0.5-0.5-0.5-0.6 0-0.8 0.5-27.9 55-30.1 56.2zm51.6-8.8l-0.1 5q0 6.7 5.3 6.7 4.3 0 7.4-5.7 2.9-5.4 4.2-10.7 2.2-9.4 3.1-15.2l5-26.2q0.3-1.3 2.5-1.9 2.2-0.7 3.9-0.7l4-0.1q-0.5 3.6-2 11.7-1.6 8-2.8 12.8h1.2q11.2 0 17.5-5.1 5.8-5 5.8-11.1 0-6.2-5.6-10.5-5.6-4.3-16-4.3-5.4 0-11.5 1.7-6.1 1.6-10.7 4.8-4.6 3.3-4.6 6.9 0 3.5 1.9 5.3 1.9 1.7 5.6 3.1 0 4.7-1.2 7.2-7.6-2.3-11.5-7.8-2.1-3-2.1-7.1 0-4.1 3.2-8.1 3.3-3.9 8.6-6.4 11-5.3 25.1-5.3 17.9 0 25.8 8.1 4.6 4.7 4.6 10.9 0 4.2-2.2 8.4-2.2 4.1-6.1 7.4-3.8 3.3-9.6 5.3-5.9 2.1-12.7 2.1-3.1 0-6.4-0.6-3.4 23.1-13.7 31.3-5.3 4.3-11.1 4.3-5.9 0-9.8-2.8-3.9-2.8-3.9-7.8 0-5.6 8.9-5.6zm71.7 2.7q-10.1 6.6-16.5 6.6-0.9 0-2.3-0.6-2.6-1.2-2.6-4 0-1.7 2-2.9 2-1.3 5-2.4l11.9-5.4 10.5-37.7q0.9-2.8 2.8-4.5 1-0.8 2-1.5 1-0.7 2.3-1.7 1.2-0.9 4.2-2.9 3.1-2.1 7.4-4.4 4.4-2.3 6.4-2.3 5.9 0 10.6 4.8 4.8 4.8 4.8 10.7 0 2.6-2 3.6-2 1-10 5.5-11.4 6.2-12.3 6.2-1.8 0-1.8-1.8 0-2.2 8-5.7 3-1.3 5.5-3.1 2.6-1.7 2.6-3.3l-0.2-1.3q-1.4-7-4.4-9.7-1.4-1.3-3.1-1.3-2.2 0.3-5.3 3.4-3.2 3.1-5.5 6.8-2.4 3.7-2.8 5.7-4.5 22.1-10.6 36.4 0.6 0.2 1.8 0.6 1.2 0.4 1.7 0.5 0.5 0.2 4.7 1.7 10.7 3.9 13.2 3.9 4 0 12.7-7.7 3.3-2.9 7.1-6.8v5.1q-10.3 10.3-16.1 13.7-6.4 3.7-12.1 3.7-0.4 0-1-0.3-0.5-0.3-1.2-0.7-0.7-0.3-2.2-1-1.4-0.6-3.3-1.4-5.4-2.2-11.9-4.5zm109-45.8q2.4 2.5 3.9 6.7 1.5 4.2 1.5 8.5 0 4.1-0.6 6.9 6.2-0.9 12.7-4.8v4.2q-6.1 4.8-14.2 6.4-2.8 7.7-8.9 13.6-6 6-13.5 9.1-7.5 3.1-15.1 3.1-14.6 0-22.3-11.2-5.6-8.1-5.6-21.6 0-11.2 7.1-21.3 7.8-10.9 20-15.1 6.6-2.4 14-2.4 2.8 0 6.3 0.6l-0.2 4.6q-2.2-0.3-6.2-0.3-4.1 0-9.3 1.8-5.2 1.9-9.1 4.9-3.8 3.1-6.6 7-5.7 7.8-5.7 16.4 0 15.6 10 22.6 5.8 4.1 13.9 4.1 8.1 0 14.5-4.2 6.5-4.3 10.1-11h-0.6q-9.7 0-16.5-4.9-3.3-2.3-5.3-6.1-2-3.8-2-9.2 0-5.4 4.2-9.5 4.1-4.1 12.1-4.1 6.5 0 11.4 5.2zm-19.9 5.7q0 7.2 5.4 12 5.4 4.8 13.6 4.9 1.3-3.9 1.3-7.8 0-6.5-3.4-10.7-3.3-4.2-9.6-4.2-3.7 0-5.5 1.6-1.8 1.5-1.8 4.2zm72.2 57.2l1.6-5.5-12.6 7.4q-5.1 2.3-8.3 5.3-3.2 2.9-3.2 6 0 3 1.1 4.6 1.1 1.7 2.7 1.9 3 0 6.9-2.9 3.9-2.9 7.2-7.6 3.3-4.6 4.6-9.2zm-14.2-79.4q2.1-1.4 5.1-1.4 2.9 0 2.9 1.3 0 0.8-1.2 5.1-1.3 4.2-2.3 8.1-1 3.8-3.8 13.1-6.5 20.8-6.5 25.1 0 1.7 1.1 3.4 1 1.6 2.4 1.6 3.2 0 7.5-1.7 4.2-1.7 8.4-4.6 4.1-2.9 7.5-7.1 3.3-4.3 4.4-8.9l4.2-17q0.6-3.1 2.5-9.9 2-6.8 2.8-7.1h9.9l-16.1 63.7 17.6-16.1v5.1l-18.4 16.4q-10.6 27.5-29.3 32.6-4 1.1-7.7 1.1-3.7 0-6.7-1-2.9-1-5-3.2-2-2.3-2-5.3 0-2.9 2.3-4.2l36.7-19.6 7.3-22.7q-7.4 8.6-17.5 15.1-10 6.5-15.8 6.5-3.5 0-5.7-2.8-2.2-2.8-2.2-9.3 0-4.3 1-8.5 1-4.1 1.5-6.1 0.5-2 1.7-5.9 1.3-3.8 1.7-5.2 1.2-3.7 3.7-10.9l4.9-14.1-14 9.7-0.5 0.3q-0.3 0.3-0.7 0.3-0.4 0-0.9-0.4-0.4-0.4-0.4-1.5 0-1.1 0.9-1.8zm67.5 56.8l1.5-0.1 2.6 0.1q1.1 0 1.7-0.1 0.3 0.1 4.2 1.6 10.3 3.9 12.2 3.9 1.8 0 4.2-1.2 1.1-0.2 6.6-4.5 5.5-4.4 9.8-8.8v5q-1.4 1.2-4 3.6-2.7 2.4-3.9 3.4-1.2 1.1-3.4 2.9-2.1 1.8-3.4 2.7-1.3 0.8-3.2 2-2 1.1-3.5 1.6-3.9 1.3-7.3 1.3-0.3 0-0.9-0.4-0.6-0.4-1.3-0.7-0.8-0.4-2.3-1-1.5-0.6-3.5-1.3-3.5-1.4-12.5-4.2-4.2 3.3-8.4 5.4-4.2 2.2-7.2 2.2-1 0-2.3-0.6-2.6-1.2-2.6-4 0-2.4 5.6-4.7 1.1-0.5 1.4-0.7l11.6-5.3q1.2-1.7 5.2-16-3.1 0.4-5.8 1-2.7 0.6-3.3 0.6-0.6 0-1.3-0.5-0.6-0.5-0.6-1.7 0-2 2.4-2.6 3.1-1.2 10.2-2.7 5.3-18.4 8.5-22.8 1.7-2.3 4.8-4.4-4.6-0.4-9.4-0.4-11.4 0-16.8 2.7-5.3 2.8-5.3 7.5 0 2.6 2.3 4.8 2.3 2.3 6.6 3.9 0 1.6-0.4 3.5-0.4 1.9-0.9 2.3-7-2.5-10.7-6-3.6-3.6-3.6-7.4 0-8.2 8-13.1 8-5 21.8-5h13.2q28.2 0 28.2 1.2 0 0.6-0.9 1.4l-4.5 5.2q-2.4 1.6-4.8 1.6-2.3 0-8.5-1-6.1-0.9-8.8-1-0.4 1.3-2.9 10.7-2.5 9.4-4.1 14.7 5.9-0.4 10.8-0.4 4.9 0 10.2 0.3 1.7 0 1.7 1.4 0 1.4-1.5 2.9-1.4 1.5-3.1 1.5-13.4 0-19.7 0.5v0.1q-2.3 8.5-8.7 19.1zm71.9-20.5q5.2 0 9.7-1.7 4.6-1.8 7.5-4.5 2.9-2.7 4.6-5.8 1.6-3.1 1.6-5.9 0-5.6-5.2-9.9-5.2-4.2-13.3-4.2-10.4 0-19.4 3.6-4.2 1.7-6.9 4.4-2.7 2.7-2.7 5.9 0 3.1 2 4.8 2 1.7 5.4 3.1 0 4.1-1.2 7.2-5.4-1.7-9.2-5-4.3-3.7-4.3-8.8 0-5.1 3.3-9 3.2-4 8.5-6.5 11.2-5.4 25.5-5.4 11.5 0 20.4 5.1 4.1 2.3 6.7 6 2.5 3.7 2.5 7.9 0 4.2-1.7 7.4-1.7 3.2-5.2 5.6-6.2 4.3-18.7 7.5 2.5 1.3 5.2 5.6 2.7 4.2 4.5 8.5 1.9 4.2 3.7 7.7 1.8 3.3 2.7 3.3 1 0 2.8-1.2 1.8-1.1 4-3.1 2.2-2 4.2-3.9 2-1.9 4.2-4.1 2.3-2.3 3.1-3l0.1 4.6q-0.5 0.5-2.7 3-2.3 2.4-3.3 3.5-1 1-3.1 3.2-2.1 2.1-3.6 3.2-1.4 1-3.3 2.4-3.6 2.4-6.5 2.4-2.8 0-4.5-0.6-1.7-0.6-2.9-1.7-1.2-1.2-1.9-2.2-0.7-1.1-1.7-2.7-0.8-1.6-1.3-2.2-5.2-13.8-10.2-20.5-0.2 0.5-0.7 2.6-0.6 2.1-1.1 4-0.5 1.8-1.7 5.2-1.3 3.4-2.4 5.5-1.1 2.1-3 4.8-1.9 2.6-4 4.1-5.1 3.7-11.4 3.7-5.5 0-10-3-5-3.2-5-8.9 0-2.5 2.9-3.9 2.8-1.3 7-1.3 0.3 0 0.7 0.2-0.2 1.8-0.2 3.3 0 8.6 5.7 8.6 3 0 5.8-4.7 2.8-4.6 4.7-11.7 1.9-7 3.4-13.9 1.4-7 2.5-12.9 1-6 1.3-6.9 0.4-1 0.5-1.3 0.1-0.4 0.6-1.1 0.6-0.8 1.3-1.1 2-0.8 4.4-0.8 2.4 0 3.7 0.1-1.2 9.9-4.4 25.4zm73.4 0q5.2 0 9.8-1.7 4.5-1.8 7.4-4.5 3-2.7 4.6-5.8 1.7-3.1 1.7-5.9 0-5.6-5.2-9.9-5.3-4.2-13.4-4.2-10.3 0-19.3 3.6-4.3 1.7-7 4.4-2.6 2.7-2.6 5.9 0 3.1 2 4.8 2 1.7 5.4 3.1 0 4.1-1.2 7.2-5.4-1.7-9.3-5-4.2-3.7-4.2-8.8 0-5.1 3.2-9 3.3-4 8.5-6.5 11.2-5.4 25.5-5.4 11.5 0 20.4 5.1 4.2 2.3 6.7 6 2.6 3.7 2.6 7.9 0 4.2-1.8 7.4-1.6 3.2-5.1 5.6-6.3 4.3-18.7 7.5 2.4 1.3 5.1 5.6 2.7 4.2 4.6 8.5 1.8 4.2 3.6 7.7 1.8 3.3 2.8 3.3 0.9 0 2.7-1.2 1.8-1.1 4.1-3.1 2.2-2 4.1-3.9 2-1.9 4.3-4.1 2.2-2.3 3-3l0.1 4.6q-0.5 0.5-2.7 3-2.2 2.4-3.2 3.5-1 1-3.2 3.2-2.1 2.1-3.5 3.2-1.4 1-3.4 2.4-3.6 2.4-6.4 2.4-2.8 0-4.6-0.6-1.7-0.6-2.9-1.7-1.1-1.2-1.9-2.2-0.7-1.1-1.6-2.7-0.9-1.6-1.4-2.2-5.2-13.8-10.2-20.5-0.1 0.5-0.7 2.6-0.5 2.1-1.1 4-0.5 1.8-1.7 5.2-1.2 3.4-2.4 5.5-1.1 2.1-3 4.8-1.9 2.6-4 4.1-5.1 3.7-11.3 3.7-5.5 0-10.1-3-4.9-3.2-4.9-8.9 0-2.5 2.8-3.9 2.9-1.3 7-1.3 0.4 0 0.7 0.2-0.2 1.8-0.2 3.3 0 8.6 5.7 8.6 3.1 0 5.8-4.7 2.8-4.6 4.7-11.7 2-7 3.4-13.9 1.5-7 2.5-12.9 1.1-6 1.4-6.9 0.3-1 0.4-1.3 0.2-0.4 0.7-1.1 0.5-0.8 1.2-1.1 2.1-0.8 4.5-0.8 2.4 0 3.6 0.1-1.2 9.9-4.4 25.4z"/>
</svg>